HIERARCHY
ROOT root
{
	OFFSET	0	13.1	24.9
	CHANNELS 6  Xposition Yposition Zposition Xrotation Yrotation Zrotation
	JOINT spine_1
	{
		OFFSET	0	9.99999	0
		CHANNELS 3  Xrotation Yrotation Zrotation
		JOINT spine_2
		{
			OFFSET	0	112	-10
			CHANNELS 3  Xrotation Yrotation Zrotation
			JOINT spine_3
			{
				OFFSET	0	206.5	19.3
				CHANNELS 3  Xrotation Yrotation Zrotation
				JOINT spine_4
				{
					OFFSET	0	110.4	14.6
					CHANNELS 3  Xrotation Yrotation Zrotation
					JOINT neck_1
					{
						OFFSET	0	71.8	-50.3
						CHANNELS 3  Xrotation Yrotation Zrotation
						JOINT neck_2
						{
							OFFSET	0	86.2	-25.8
							CHANNELS 3  Xrotation Yrotation Zrotation
							JOINT head_ee
							{
								OFFSET	0	179.8	-8.7
								CHANNELS 3  Xrotation Yrotation Zrotation
								End Site
								{
									OFFSET	1	0	0
								}
							}
						}
					}
					JOINT left_clavicle
					{
						OFFSET	-43.2	22.4	-70.8
						CHANNELS 3  Xrotation Yrotation Zrotation
						JOINT left_shoulder
						{
							OFFSET	-93.9	-5.79999	48.7
							CHANNELS 3  Xrotation Yrotation Zrotation
							JOINT left_elbow
							{
								OFFSET	-291.4	-30.8	15.2
								CHANNELS 3  Xrotation Yrotation Zrotation
								JOINT left_lowarm_twist
								{
									OFFSET	-110.7	-3.89999	13.6
									CHANNELS 3  Xrotation Yrotation Zrotation
									JOINT left_hand
									{
										OFFSET	-110.7	-3.89999	13.6
										CHANNELS 3  Xrotation Yrotation Zrotation
										JOINT left_ee
										{
											OFFSET	-80.8	-5.10001	12.1
											CHANNELS 3  Xrotation Yrotation Zrotation
											End Site
											{
												OFFSET	1	0	0
											}
										}
									}
								}
							}
						}
					}
					JOINT right_clavicle
					{
						OFFSET	43.2	22.4	-70.8
						CHANNELS 3  Xrotation Yrotation Zrotation
						JOINT right_shoulder
						{
							OFFSET	93.9	-5.79999	48.7
							CHANNELS 3  Xrotation Yrotation Zrotation
							JOINT right_elbow
							{
								OFFSET	291.4	-30.8	15.2
								CHANNELS 3  Xrotation Yrotation Zrotation
								JOINT right_lowarm_twist
								{
									OFFSET	110.7	-3.89999	13.6
									CHANNELS 3  Xrotation Yrotation Zrotation
									JOINT right_hand
									{
										OFFSET	110.7	-3.89999	13.6
										CHANNELS 3  Xrotation Yrotation Zrotation
										JOINT right_ee
										{
											OFFSET	80.8	-5.10001	12.1
											CHANNELS 3  Xrotation Yrotation Zrotation
											End Site
											{
												OFFSET	1	0	0
											}
										}
									}
								}
							}
						}
					}
				}
			}
		}
	}
	JOINT left_hip
	{
		OFFSET	-82.8	-127.5	0.300001
		CHANNELS 3  Xrotation Yrotation Zrotation
		JOINT left_knee
		{
			OFFSET	-28.2	-396.7	2.2
			CHANNELS 3  Xrotation Yrotation Zrotation
			JOINT left_ankle
			{
				OFFSET	-11.7	-411.3	35.4
				CHANNELS 3  Xrotation Yrotation Zrotation
				JOINT left_toes
				{
					OFFSET	0	-60	-88.6
					CHANNELS 3  Xrotation Yrotation Zrotation
					JOINT left_foot_ee
					{
						OFFSET	-22.5	-16.5	-42.2
						CHANNELS 3  Xrotation Yrotation Zrotation
						End Site
						{
							OFFSET	1	0	0
						}
					}
				}
			}
		}
	}
	JOINT right_hip
	{
		OFFSET	82.8	-127.5	0.300001
		CHANNELS 3  Xrotation Yrotation Zrotation
		JOINT right_knee
		{
			OFFSET	28.2	-396.7	2.2
			CHANNELS 3  Xrotation Yrotation Zrotation
			JOINT right_ankle
			{
				OFFSET	11.7	-411.3	35.4
				CHANNELS 3  Xrotation Yrotation Zrotation
				JOINT right_toes
				{
					OFFSET	0	-60	-88.6
					CHANNELS 3  Xrotation Yrotation Zrotation
					JOINT right_foot_ee
					{
						OFFSET	22.5	-16.5	-42.2
						CHANNELS 3  Xrotation Yrotation Zrotation
						End Site
						{
							OFFSET	1	0	0
						}
					}
				}
			}
		}
	}
}
MOTION
Frames: 5
Frame Time: 0.02
3177.02 653.055 -1669.29 -10.4030228076 34.6602449913 18.9400991612 2.91797 -0.415201 -2.93937 2.92275 -0.227404 -2.9598 2.93315 0.248833 -2.95808 2.92101 -0.221253 -2.96027 2.66 -2.65951 -3.35334 2.68792 -1.79574 -3.92128 -0.0 0.0 -0.0 3.74154 13.39 7.73991 -34.5734 -22.5725 67.3268 0.675385 -18.4985 0.109986 33.8146 -0.0672145 -4.25702 0.0321618 3.02978 1.48426 -0.0 0.0 -0.0 7.21299 6.73891 -13.9429 2.84663 -3.91417 -56.2968 1.87622 42.9007 -0.73724 28.1533 -0.11973 3.5584 6.44339 13.9307 -40.4138 0.0 0.0 0.0 39.0831 -7.04958 -10.3801 -5.40733 0.184565 0.809034 14.1967 -6.01282 -2.04414 -35.7287 0.0 0.0 -0.0 0.0 -0.0 0.522549 16.8572 -23.5011 -8.02176 -0.246219 -1.20547 39.9906 -21.3931 5.0619 12.4972 -0.0 -0.0 0.0 0.0 0.0 
3177.02 653.055 -1669.29 -10.4294595699 34.8674434087 18.9864634843 2.91797 -0.415201 -2.93937 2.92275 -0.227404 -2.9598 2.93315 0.248833 -2.95808 2.92101 -0.221253 -2.96027 2.66 -2.65951 -3.35334 2.68792 -1.79574 -3.92128 -0.0 0.0 -0.0 3.74154 13.39 7.73991 -34.5734 -22.5725 67.3268 0.675385 -18.4985 0.109986 33.8146 -0.0672145 -4.25702 0.0321618 3.02978 1.48426 -0.0 0.0 -0.0 7.21299 6.73891 -13.9429 2.84663 -3.91417 -56.2968 1.87622 42.9007 -0.73724 28.1533 -0.11973 3.5584 6.44339 13.9307 -40.4138 0.0 0.0 0.0 39.0831 -7.04958 -10.3801 -5.40733 0.184565 0.809034 14.1967 -6.01282 -2.04414 -35.7287 0.0 0.0 -0.0 0.0 -0.0 0.522549 16.8572 -23.5011 -8.02176 -0.246219 -1.20547 39.9906 -21.3931 5.0619 12.4972 -0.0 -0.0 0.0 0.0 0.0 
3177.02 653.055 -1669.29 -10.4465947793 35.0006081681 19.0163870176 2.91797 -0.415201 -2.93937 2.92275 -0.227404 -2.9598 2.93315 0.248833 -2.95808 2.92101 -0.221253 -2.96027 2.66 -2.65951 -3.35334 2.68792 -1.79574 -3.92128 -0.0 0.0 -0.0 3.74154 13.39 7.73991 -34.5734 -22.5725 67.3268 0.675385 -18.4985 0.109986 33.8146 -0.0672145 -4.25702 0.0321618 3.02978 1.48426 -0.0 0.0 -0.0 7.21299 6.73891 -13.9429 2.84663 -3.91417 -56.2968 1.87622 42.9007 -0.73724 28.1533 -0.11973 3.5584 6.44339 13.9307 -40.4138 0.0 0.0 0.0 39.0831 -7.04958 -10.3801 -5.40733 0.184565 0.809034 14.1967 -6.01282 -2.04414 -35.7287 0.0 0.0 -0.0 0.0 -0.0 0.522549 16.8572 -23.5011 -8.02176 -0.246219 -1.20547 39.9906 -21.3931 5.0619 12.4972 -0.0 -0.0 0.0 0.0 0.0 
3166.16326028 652.586 -1686.88551086 -10.1589192721 35.7836992715 19.6775041596 2.98146 -0.488479 -3.10929 2.98679 -0.289737 -3.13404 3.00106 0.211381 -3.14029 2.98742 -0.286972 -3.13429 2.31441 -2.32799 -2.61523 2.33184 -1.86551 -3.074 -0.0 0.0 -0.0 2.50639 13.641 5.71187 -32.0664 -24.4112 69.1467 0.805442 -21.7515 0.154753 32.7874 -0.0281774 -4.13167 0.0740377 3.15353 1.8129 -0.0 0.0 -0.0 7.02439 6.42835 -13.5585 0.750718 -3.44712 -56.6114 1.84704 42.4534 -0.717462 26.4715 -0.161866 3.34771 6.39749 13.9543 -40.0025 0.0 0.0 0.0 39.3188 -6.78655 -10.99 -11.2325 0.29709 1.69545 14.7994 -2.98573 -2.10165 -34.3485 0.0 0.0 -0.0 0.0 -0.0 0.460345 16.3614 -24.1116 -10.692 -0.29045 -1.61279 40.5585 -23.588 5.17655 12.8848 -0.0 -0.0 0.0 0.0 0.0 
3152.45078716 656.043 -1705.95538668 -9.72593741961 36.9055114889 20.0064961259 2.7129 -0.470312 -3.25851 2.71877 -0.262125 -3.2818 2.73246 0.277569 -3.28053 2.71753 -0.243727 -3.28322 2.9073 -2.4762 -3.10823 2.93118 -1.66722 -3.63921 -0.0 0.0 -0.0 3.67701 12.5193 7.61001 -30.6236 -26.9384 67.5081 1.04014 -27.2593 0.252213 33.4875 -0.0545415 -4.21718 -0.0191529 4.03896 1.5659 -0.0 0.0 -0.0 6.72728 3.55759 -13.0115 -0.783279 -3.55327 -57.1363 1.86959 42.7997 -0.732732 27.6856 -0.132067 3.49994 6.49251 14.4678 -40.4731 0.0 0.0 0.0 39.1212 -6.21413 -11.8775 -15.3562 0.322035 2.32754 12.9315 -6.77469 -1.87808 -34.1735 0.0 0.0 -0.0 0.0 -0.0 0.432132 14.7742 -23.6041 -12.5748 -0.310204 -1.90099 39.2515 -24.6342 5.08386 12.5181 -0.0 -0.0 0.0 0.0 0.0 
